<svg xmlns="http://www.w3.org/2000/svg" xmlns:xlink="http://www.w3.org/1999/xlink" width="500" zoomAndPan="magnify" viewBox="0 0 375 374.999991" height="500" preserveAspectRatio="xMidYMid meet" version="1.0"><defs><g/></defs><path fill="#3871c1" d="M 277.875 158.238281 L 277.875 163.941406 L 183.554688 163.941406 C 182.871094 163.941406 182.210938 163.695312 181.695312 163.25 L 143.84375 130.640625 L 105.785156 163.941406 L 97.125 163.941406 L 141.949219 124.714844 C 143.011719 123.78125 144.609375 123.777344 145.6875 124.703125 L 163.789062 140.296875 L 163.789062 131.203125 C 163.789062 130.382812 164.457031 129.714844 165.277344 129.714844 L 173.710938 129.714844 C 174.53125 129.714844 175.199219 130.382812 175.199219 131.203125 L 175.199219 150.125 L 184.613281 158.238281 Z M 277.875 158.238281 " fill-opacity="1" fill-rule="nonzero"/><path fill="#51ade5" d="M 140.972656 146.828125 L 135.269531 146.828125 L 135.269531 152.53125 L 140.972656 152.53125 Z M 152.382812 152.53125 L 146.675781 152.53125 L 146.675781 146.828125 L 152.382812 146.828125 Z M 140.972656 163.941406 L 135.269531 163.941406 L 135.269531 158.238281 L 140.972656 158.238281 Z M 152.382812 163.941406 L 146.675781 163.941406 L 146.675781 158.238281 L 152.382812 158.238281 Z M 152.382812 163.941406 " fill-opacity="1" fill-rule="nonzero"/><g fill="#ffffff" fill-opacity="1"><g transform="translate(85.762004, 194.059132)"><g><path d="M 14.53125 -5.09375 C 14.53125 -3.332031 13.953125 -1.976562 12.796875 -1.03125 C 11.648438 -0.09375 9.945312 0.375 7.6875 0.375 C 6.132812 0.375 4.785156 0.113281 3.640625 -0.40625 C 2.492188 -0.925781 1.5625 -1.757812 0.84375 -2.90625 L 3.59375 -5.015625 C 4 -4.441406 4.382812 -4.007812 4.75 -3.71875 C 5.113281 -3.425781 5.546875 -3.203125 6.046875 -3.046875 C 6.546875 -2.890625 7.117188 -2.8125 7.765625 -2.8125 C 8.742188 -2.8125 9.503906 -2.976562 10.046875 -3.3125 C 10.597656 -3.644531 10.875 -4.15625 10.875 -4.84375 C 10.875 -5.226562 10.773438 -5.550781 10.578125 -5.8125 C 10.390625 -6.070312 10.101562 -6.296875 9.71875 -6.484375 C 9.34375 -6.679688 8.6875 -6.898438 7.75 -7.140625 C 6.832031 -7.390625 5.96875 -7.640625 5.15625 -7.890625 C 4.351562 -8.140625 3.65625 -8.460938 3.0625 -8.859375 C 2.476562 -9.253906 2.015625 -9.753906 1.671875 -10.359375 C 1.335938 -10.960938 1.171875 -11.71875 1.171875 -12.625 C 1.171875 -14.300781 1.734375 -15.601562 2.859375 -16.53125 C 3.984375 -17.46875 5.59375 -17.9375 7.6875 -17.9375 C 10.726562 -17.9375 12.878906 -16.894531 14.140625 -14.8125 L 11.40625 -12.6875 C 10.925781 -13.425781 10.382812 -13.957031 9.78125 -14.28125 C 9.1875 -14.601562 8.472656 -14.765625 7.640625 -14.765625 C 6.816406 -14.765625 6.144531 -14.613281 5.625 -14.3125 C 5.101562 -14.007812 4.84375 -13.539062 4.84375 -12.90625 C 4.84375 -12.332031 5.113281 -11.894531 5.65625 -11.59375 C 6.195312 -11.289062 7.140625 -10.988281 8.484375 -10.6875 C 9.222656 -10.488281 9.957031 -10.273438 10.6875 -10.046875 C 11.414062 -9.828125 12.066406 -9.519531 12.640625 -9.125 C 13.210938 -8.726562 13.671875 -8.207031 14.015625 -7.5625 C 14.359375 -6.925781 14.53125 -6.101562 14.53125 -5.09375 Z M 14.53125 -5.09375 "/></g></g></g><g fill="#ffffff" fill-opacity="1"><g transform="translate(102.633871, 194.059132)"><g><path d="M 0.34375 0 L 6.15625 -17.578125 L 10.8125 -17.578125 L 16.640625 0 L 12.96875 0 L 11.8125 -3.5625 L 5.046875 -3.5625 L 3.890625 0 Z M 6.0625 -6.703125 L 10.796875 -6.703125 L 8.4375 -13.96875 Z M 6.0625 -6.703125 "/></g></g></g><g fill="#ffffff" fill-opacity="1"><g transform="translate(120.876419, 194.059132)"><g><path d="M 1.90625 0 L 1.90625 -17.578125 L 13.3125 -17.578125 L 13.3125 -14.40625 L 5.484375 -14.40625 L 5.484375 -10.671875 L 12.09375 -10.671875 L 12.09375 -7.484375 L 5.484375 -7.484375 L 5.484375 -3.28125 L 13.3125 -3.28125 L 13.3125 0 Z M 1.90625 0 "/></g></g></g><g fill="#ffffff" fill-opacity="1"><g transform="translate(136.732968, 194.059132)"><g><path d="M 1.90625 0 L 1.90625 -17.578125 L 13.3125 -17.578125 L 13.3125 -14.40625 L 5.484375 -14.40625 L 5.484375 -10.671875 L 12.09375 -10.671875 L 12.09375 -7.484375 L 5.484375 -7.484375 L 5.484375 -3.28125 L 13.3125 -3.28125 L 13.3125 0 Z M 1.90625 0 "/></g></g></g><g fill="#ffffff" fill-opacity="1"><g transform="translate(152.589511, 194.059132)"><g><path d="M 15.578125 -8.78125 C 15.578125 -6.664062 15.285156 -4.960938 14.703125 -3.671875 C 14.117188 -2.390625 13.238281 -1.457031 12.0625 -0.875 C 10.882812 -0.289062 9.226562 0 7.09375 0 L 1.734375 0 L 1.734375 -17.578125 L 7.046875 -17.578125 C 9.117188 -17.578125 10.765625 -17.273438 11.984375 -16.671875 C 13.210938 -16.066406 14.117188 -15.128906 14.703125 -13.859375 C 15.285156 -12.585938 15.578125 -10.894531 15.578125 -8.78125 Z M 11.890625 -8.8125 C 11.890625 -10.34375 11.738281 -11.476562 11.4375 -12.21875 C 11.132812 -12.957031 10.625 -13.488281 9.90625 -13.8125 C 9.1875 -14.132812 8.117188 -14.296875 6.703125 -14.296875 L 5.328125 -14.296875 L 5.328125 -3.28125 L 6.703125 -3.28125 C 8.117188 -3.28125 9.179688 -3.441406 9.890625 -3.765625 C 10.609375 -4.085938 11.117188 -4.628906 11.421875 -5.390625 C 11.734375 -6.148438 11.890625 -7.289062 11.890625 -8.8125 Z M 11.890625 -8.8125 "/></g></g></g><g fill="#ffffff" fill-opacity="1"><g transform="translate(170.52746, 194.059132)"><g/></g></g><g fill="#ffffff" fill-opacity="1"><g transform="translate(178.04569, 194.059132)"><g><path d="M 11.40625 0 L 6.546875 -7.34375 L 5.484375 -6.109375 L 5.484375 0 L 1.90625 0 L 1.90625 -17.578125 L 5.484375 -17.578125 L 5.484375 -10.71875 L 11.234375 -17.578125 L 15.40625 -17.578125 L 8.859375 -10 L 15.875 0 Z M 11.40625 0 "/></g></g></g><g fill="#ffffff" fill-opacity="1"><g transform="translate(195.56482, 194.059132)"><g><path d="M 12.40625 0 L 12.40625 -7.46875 L 5.484375 -7.46875 L 5.484375 0 L 1.90625 0 L 1.90625 -17.578125 L 5.484375 -17.578125 L 5.484375 -10.734375 L 12.40625 -10.734375 L 12.40625 -17.578125 L 16 -17.578125 L 16 0 Z M 12.40625 0 "/></g></g></g><g fill="#ffffff" fill-opacity="1"><g transform="translate(214.721153, 194.059132)"><g><path d="M 0.34375 0 L 6.15625 -17.578125 L 10.8125 -17.578125 L 16.640625 0 L 12.96875 0 L 11.8125 -3.5625 L 5.046875 -3.5625 L 3.890625 0 Z M 6.0625 -6.703125 L 10.796875 -6.703125 L 8.4375 -13.96875 Z M 6.0625 -6.703125 "/></g></g></g><g fill="#ffffff" fill-opacity="1"><g transform="translate(232.963698, 194.059132)"><g><path d="M 15.8125 0 L 15.8125 -11.8125 L 11.59375 -4.46875 L 9.515625 -4.46875 L 5.359375 -11.8125 L 5.359375 0 L 1.90625 0 L 1.90625 -17.578125 L 6.03125 -17.578125 L 10.609375 -9.234375 L 15.234375 -17.578125 L 19.265625 -17.578125 L 19.265625 0 Z M 15.8125 0 "/></g></g></g><g fill="#ffffff" fill-opacity="1"><g transform="translate(255.394437, 194.059132)"><g><path d="M 0.34375 0 L 6.15625 -17.578125 L 10.8125 -17.578125 L 16.640625 0 L 12.96875 0 L 11.8125 -3.5625 L 5.046875 -3.5625 L 3.890625 0 Z M 6.0625 -6.703125 L 10.796875 -6.703125 L 8.4375 -13.96875 Z M 6.0625 -6.703125 "/></g></g></g><g fill="#ffffff" fill-opacity="1"><g transform="translate(273.636982, 194.059132)"><g><path d="M 14.53125 -5.09375 C 14.53125 -3.332031 13.953125 -1.976562 12.796875 -1.03125 C 11.648438 -0.09375 9.945312 0.375 7.6875 0.375 C 6.132812 0.375 4.785156 0.113281 3.640625 -0.40625 C 2.492188 -0.925781 1.5625 -1.757812 0.84375 -2.90625 L 3.59375 -5.015625 C 4 -4.441406 4.382812 -4.007812 4.75 -3.71875 C 5.113281 -3.425781 5.546875 -3.203125 6.046875 -3.046875 C 6.546875 -2.890625 7.117188 -2.8125 7.765625 -2.8125 C 8.742188 -2.8125 9.503906 -2.976562 10.046875 -3.3125 C 10.597656 -3.644531 10.875 -4.15625 10.875 -4.84375 C 10.875 -5.226562 10.773438 -5.550781 10.578125 -5.8125 C 10.390625 -6.070312 10.101562 -6.296875 9.71875 -6.484375 C 9.34375 -6.679688 8.6875 -6.898438 7.75 -7.140625 C 6.832031 -7.390625 5.96875 -7.640625 5.15625 -7.890625 C 4.351562 -8.140625 3.65625 -8.460938 3.0625 -8.859375 C 2.476562 -9.253906 2.015625 -9.753906 1.671875 -10.359375 C 1.335938 -10.960938 1.171875 -11.71875 1.171875 -12.625 C 1.171875 -14.300781 1.734375 -15.601562 2.859375 -16.53125 C 3.984375 -17.46875 5.59375 -17.9375 7.6875 -17.9375 C 10.726562 -17.9375 12.878906 -16.894531 14.140625 -14.8125 L 11.40625 -12.6875 C 10.925781 -13.425781 10.382812 -13.957031 9.78125 -14.28125 C 9.1875 -14.601562 8.472656 -14.765625 7.640625 -14.765625 C 6.816406 -14.765625 6.144531 -14.613281 5.625 -14.3125 C 5.101562 -14.007812 4.84375 -13.539062 4.84375 -12.90625 C 4.84375 -12.332031 5.113281 -11.894531 5.65625 -11.59375 C 6.195312 -11.289062 7.140625 -10.988281 8.484375 -10.6875 C 9.222656 -10.488281 9.957031 -10.273438 10.6875 -10.046875 C 11.414062 -9.828125 12.066406 -9.519531 12.640625 -9.125 C 13.210938 -8.726562 13.671875 -8.207031 14.015625 -7.5625 C 14.359375 -6.925781 14.53125 -6.101562 14.53125 -5.09375 Z M 14.53125 -5.09375 "/></g></g></g><g fill="#ffffff" fill-opacity="1"><g transform="translate(72.035785, 224.192095)"><g><path d="M 4.796875 0 L 4.375 -1.265625 L 1.859375 -1.265625 L 1.4375 0 L -0.140625 0 L 2.28125 -6.75 L 3.953125 -6.75 L 6.375 0 Z M 2.25 -2.515625 L 3.984375 -2.515625 L 3.109375 -5.1875 Z M 2.25 -2.515625 "/></g></g></g><g fill="#ffffff" fill-opacity="1"><g transform="translate(81.265428, 224.192095)"><g><path d="M 2.15625 -1.3125 L 4.390625 -1.3125 L 4.390625 0 L 0.65625 0 L 0.65625 -6.75 L 2.15625 -6.75 Z M 2.15625 -1.3125 "/></g></g></g><g fill="#ffffff" fill-opacity="1"><g transform="translate(88.672554, 224.192095)"><g><path d="M 3.4375 0.09375 C 2.90625 0.09375 2.425781 -0.00390625 2 -0.203125 C 1.582031 -0.398438 1.25 -0.671875 1 -1.015625 C 0.75 -1.359375 0.625 -1.738281 0.625 -2.15625 L 0.625 -6.75 L 2.109375 -6.75 L 2.109375 -2.4375 C 2.109375 -2.09375 2.234375 -1.800781 2.484375 -1.5625 C 2.742188 -1.332031 3.0625 -1.21875 3.4375 -1.21875 C 3.8125 -1.21875 4.125 -1.332031 4.375 -1.5625 C 4.632812 -1.800781 4.765625 -2.09375 4.765625 -2.4375 L 4.765625 -6.75 L 6.25 -6.75 L 6.25 -2.15625 C 6.25 -1.738281 6.125 -1.359375 5.875 -1.015625 C 5.625 -0.671875 5.285156 -0.398438 4.859375 -0.203125 C 4.441406 -0.00390625 3.96875 0.09375 3.4375 0.09375 Z M 3.4375 0.09375 "/></g></g></g><g fill="#ffffff" fill-opacity="1"><g transform="translate(98.543455, 224.192095)"><g><path d="M 6.546875 -6.75 L 8.140625 -6.75 L 8.140625 0 L 6.65625 0 L 6.65625 -4.015625 L 4.828125 0 L 3.96875 0 L 2.15625 -4.03125 L 2.15625 0 L 0.65625 0 L 0.65625 -6.75 L 2.265625 -6.75 L 4.40625 -2.078125 Z M 6.546875 -6.75 "/></g></g></g><g fill="#ffffff" fill-opacity="1"><g transform="translate(110.349369, 224.192095)"><g><path d="M 0.71875 0 L 0.71875 -6.75 L 2.203125 -6.75 L 2.203125 0 Z M 0.71875 0 "/></g></g></g><g fill="#ffffff" fill-opacity="1"><g transform="translate(116.260236, 224.192095)"><g><path d="M 5.515625 -6.75 L 6.984375 -6.75 L 6.984375 0 L 5.453125 0 L 2.15625 -4.484375 L 2.15625 0 L 0.65625 0 L 0.65625 -6.75 L 2.1875 -6.75 L 5.515625 -2.28125 Z M 5.515625 -6.75 "/></g></g></g><g fill="#ffffff" fill-opacity="1"><g transform="translate(126.918641, 224.192095)"><g><path d="M 0.71875 0 L 0.71875 -6.75 L 2.203125 -6.75 L 2.203125 0 Z M 0.71875 0 "/></g></g></g><g fill="#ffffff" fill-opacity="1"><g transform="translate(132.829509, 224.192095)"><g><path d="M 3.4375 0.09375 C 2.90625 0.09375 2.425781 -0.00390625 2 -0.203125 C 1.582031 -0.398438 1.25 -0.671875 1 -1.015625 C 0.75 -1.359375 0.625 -1.738281 0.625 -2.15625 L 0.625 -6.75 L 2.109375 -6.75 L 2.109375 -2.4375 C 2.109375 -2.09375 2.234375 -1.800781 2.484375 -1.5625 C 2.742188 -1.332031 3.0625 -1.21875 3.4375 -1.21875 C 3.8125 -1.21875 4.125 -1.332031 4.375 -1.5625 C 4.632812 -1.800781 4.765625 -2.09375 4.765625 -2.4375 L 4.765625 -6.75 L 6.25 -6.75 L 6.25 -2.15625 C 6.25 -1.738281 6.125 -1.359375 5.875 -1.015625 C 5.625 -0.671875 5.285156 -0.398438 4.859375 -0.203125 C 4.441406 -0.00390625 3.96875 0.09375 3.4375 0.09375 Z M 3.4375 0.09375 "/></g></g></g><g fill="#ffffff" fill-opacity="1"><g transform="translate(142.700409, 224.192095)"><g><path d="M 6.546875 -6.75 L 8.140625 -6.75 L 8.140625 0 L 6.65625 0 L 6.65625 -4.015625 L 4.828125 0 L 3.96875 0 L 2.15625 -4.03125 L 2.15625 0 L 0.65625 0 L 0.65625 -6.75 L 2.265625 -6.75 L 4.40625 -2.078125 Z M 6.546875 -6.75 "/></g></g></g><g fill="#ffffff" fill-opacity="1"><g transform="translate(154.506322, 224.192095)"><g/></g></g><g fill="#ffffff" fill-opacity="1"><g transform="translate(160.203437, 224.192095)"><g><path d="M 6.28125 -3.921875 L 6.28125 -2.734375 L 5.546875 -2.734375 L 5.546875 -2.140625 C 5.546875 -1.722656 5.441406 -1.351562 5.234375 -1.03125 C 5.035156 -0.707031 4.757812 -0.453125 4.40625 -0.265625 C 4.050781 -0.078125 3.644531 0.015625 3.1875 0.015625 C 2.75 0.015625 2.351562 -0.0664062 2 -0.234375 C 1.644531 -0.410156 1.359375 -0.644531 1.140625 -0.9375 C 0.929688 -1.238281 0.828125 -1.578125 0.828125 -1.953125 C 0.828125 -2.234375 0.882812 -2.492188 1 -2.734375 C 1.125 -2.972656 1.285156 -3.179688 1.484375 -3.359375 C 1.273438 -3.554688 1.113281 -3.78125 1 -4.03125 C 0.882812 -4.289062 0.828125 -4.570312 0.828125 -4.875 C 0.828125 -5.226562 0.90625 -5.550781 1.0625 -5.84375 C 1.226562 -6.132812 1.453125 -6.363281 1.734375 -6.53125 C 2.015625 -6.695312 2.332031 -6.765625 2.6875 -6.734375 L 4.109375 -6.734375 L 4.109375 -5.484375 L 2.953125 -5.484375 C 2.785156 -5.472656 2.628906 -5.40625 2.484375 -5.28125 C 2.335938 -5.15625 2.265625 -4.984375 2.265625 -4.765625 C 2.265625 -4.535156 2.351562 -4.335938 2.53125 -4.171875 C 2.71875 -4.003906 2.9375 -3.921875 3.1875 -3.921875 L 4.109375 -3.921875 L 4.109375 -4.890625 L 5.546875 -4.890625 L 5.546875 -3.921875 Z M 3.15625 -1.25 C 3.457031 -1.25 3.691406 -1.332031 3.859375 -1.5 C 4.023438 -1.664062 4.109375 -1.878906 4.109375 -2.140625 L 4.109375 -2.734375 L 3.015625 -2.734375 C 2.785156 -2.734375 2.585938 -2.65625 2.421875 -2.5 C 2.265625 -2.34375 2.1875 -2.164062 2.1875 -1.96875 C 2.1875 -1.75 2.285156 -1.570312 2.484375 -1.4375 C 2.679688 -1.3125 2.90625 -1.25 3.15625 -1.25 Z M 3.15625 -1.25 "/></g></g></g><g fill="#ffffff" fill-opacity="1"><g transform="translate(169.725579, 224.192095)"><g/></g></g><g fill="#ffffff" fill-opacity="1"><g transform="translate(175.422699, 224.192095)"><g><path d="M 3.875 -3.703125 L 7.359375 -3.703125 L 7.359375 -3.375 C 7.359375 -2.894531 7.265625 -2.445312 7.078125 -2.03125 C 6.898438 -1.613281 6.648438 -1.242188 6.328125 -0.921875 C 6.015625 -0.609375 5.648438 -0.359375 5.234375 -0.171875 C 4.816406 0.00390625 4.367188 0.09375 3.890625 0.09375 C 3.410156 0.09375 2.957031 0.00390625 2.53125 -0.171875 C 2.113281 -0.359375 1.75 -0.609375 1.4375 -0.921875 C 1.125 -1.242188 0.875 -1.613281 0.6875 -2.03125 C 0.507812 -2.445312 0.421875 -2.894531 0.421875 -3.375 C 0.421875 -3.851562 0.507812 -4.300781 0.6875 -4.71875 C 0.875 -5.132812 1.125 -5.5 1.4375 -5.8125 C 1.75 -6.132812 2.113281 -6.382812 2.53125 -6.5625 C 2.957031 -6.75 3.410156 -6.84375 3.890625 -6.84375 C 4.554688 -6.84375 5.160156 -6.671875 5.703125 -6.328125 C 6.253906 -5.984375 6.675781 -5.535156 6.96875 -4.984375 L 5.6875 -4.3125 C 5.519531 -4.632812 5.273438 -4.894531 4.953125 -5.09375 C 4.640625 -5.289062 4.285156 -5.390625 3.890625 -5.390625 C 3.515625 -5.390625 3.171875 -5.300781 2.859375 -5.125 C 2.554688 -4.945312 2.316406 -4.707031 2.140625 -4.40625 C 1.960938 -4.101562 1.875 -3.757812 1.875 -3.375 C 1.875 -2.988281 1.960938 -2.644531 2.140625 -2.34375 C 2.316406 -2.039062 2.554688 -1.800781 2.859375 -1.625 C 3.171875 -1.445312 3.515625 -1.359375 3.890625 -1.359375 C 4.304688 -1.359375 4.675781 -1.46875 5 -1.6875 C 5.332031 -1.90625 5.578125 -2.191406 5.734375 -2.546875 L 3.875 -2.546875 Z M 3.875 -3.703125 "/></g></g></g><g fill="#ffffff" fill-opacity="1"><g transform="translate(186.204852, 224.192095)"><g><path d="M 2.15625 -1.3125 L 4.390625 -1.3125 L 4.390625 0 L 0.65625 0 L 0.65625 -6.75 L 2.15625 -6.75 Z M 2.15625 -1.3125 "/></g></g></g><g fill="#ffffff" fill-opacity="1"><g transform="translate(193.611983, 224.192095)"><g><path d="M 4.796875 0 L 4.375 -1.265625 L 1.859375 -1.265625 L 1.4375 0 L -0.140625 0 L 2.28125 -6.75 L 3.953125 -6.75 L 6.375 0 Z M 2.25 -2.515625 L 3.984375 -2.515625 L 3.109375 -5.1875 Z M 2.25 -2.515625 "/></g></g></g><g fill="#ffffff" fill-opacity="1"><g transform="translate(202.841631, 224.192095)"><g><path d="M 2.75 0.09375 C 2.15625 0.09375 1.628906 -0.0507812 1.171875 -0.34375 C 0.722656 -0.632812 0.394531 -0.992188 0.1875 -1.421875 L 1.40625 -2.1875 C 1.53125 -1.914062 1.707031 -1.703125 1.9375 -1.546875 C 2.175781 -1.390625 2.445312 -1.3125 2.75 -1.3125 C 3.019531 -1.3125 3.226562 -1.363281 3.375 -1.46875 C 3.519531 -1.582031 3.59375 -1.734375 3.59375 -1.921875 C 3.59375 -2.117188 3.515625 -2.273438 3.359375 -2.390625 C 3.210938 -2.515625 3.019531 -2.617188 2.78125 -2.703125 C 2.550781 -2.785156 2.300781 -2.875 2.03125 -2.96875 C 1.757812 -3.0625 1.503906 -3.179688 1.265625 -3.328125 C 1.035156 -3.484375 0.84375 -3.679688 0.6875 -3.921875 C 0.539062 -4.160156 0.46875 -4.46875 0.46875 -4.84375 C 0.46875 -5.300781 0.570312 -5.675781 0.78125 -5.96875 C 1 -6.257812 1.273438 -6.476562 1.609375 -6.625 C 1.941406 -6.769531 2.28125 -6.84375 2.625 -6.84375 C 3.050781 -6.84375 3.441406 -6.753906 3.796875 -6.578125 C 4.160156 -6.398438 4.46875 -6.171875 4.71875 -5.890625 L 3.71875 -4.9375 C 3.550781 -5.125 3.375 -5.269531 3.1875 -5.375 C 3 -5.476562 2.8125 -5.53125 2.625 -5.53125 C 2.4375 -5.53125 2.28125 -5.484375 2.15625 -5.390625 C 2.03125 -5.296875 1.96875 -5.15625 1.96875 -4.96875 C 1.96875 -4.769531 2.039062 -4.613281 2.1875 -4.5 C 2.34375 -4.382812 2.535156 -4.285156 2.765625 -4.203125 C 3.003906 -4.117188 3.253906 -4.03125 3.515625 -3.9375 C 3.785156 -3.84375 4.035156 -3.710938 4.265625 -3.546875 C 4.503906 -3.390625 4.695312 -3.179688 4.84375 -2.921875 C 5 -2.671875 5.078125 -2.332031 5.078125 -1.90625 C 5.078125 -1.488281 4.96875 -1.128906 4.75 -0.828125 C 4.539062 -0.523438 4.257812 -0.296875 3.90625 -0.140625 C 3.550781 0.015625 3.164062 0.09375 2.75 0.09375 Z M 2.75 0.09375 "/></g></g></g><g fill="#ffffff" fill-opacity="1"><g transform="translate(211.17127, 224.192095)"><g><path d="M 2.75 0.09375 C 2.15625 0.09375 1.628906 -0.0507812 1.171875 -0.34375 C 0.722656 -0.632812 0.394531 -0.992188 0.1875 -1.421875 L 1.40625 -2.1875 C 1.53125 -1.914062 1.707031 -1.703125 1.9375 -1.546875 C 2.175781 -1.390625 2.445312 -1.3125 2.75 -1.3125 C 3.019531 -1.3125 3.226562 -1.363281 3.375 -1.46875 C 3.519531 -1.582031 3.59375 -1.734375 3.59375 -1.921875 C 3.59375 -2.117188 3.515625 -2.273438 3.359375 -2.390625 C 3.210938 -2.515625 3.019531 -2.617188 2.78125 -2.703125 C 2.550781 -2.785156 2.300781 -2.875 2.03125 -2.96875 C 1.757812 -3.0625 1.503906 -3.179688 1.265625 -3.328125 C 1.035156 -3.484375 0.84375 -3.679688 0.6875 -3.921875 C 0.539062 -4.160156 0.46875 -4.46875 0.46875 -4.84375 C 0.46875 -5.300781 0.570312 -5.675781 0.78125 -5.96875 C 1 -6.257812 1.273438 -6.476562 1.609375 -6.625 C 1.941406 -6.769531 2.28125 -6.84375 2.625 -6.84375 C 3.050781 -6.84375 3.441406 -6.753906 3.796875 -6.578125 C 4.160156 -6.398438 4.46875 -6.171875 4.71875 -5.890625 L 3.71875 -4.9375 C 3.550781 -5.125 3.375 -5.269531 3.1875 -5.375 C 3 -5.476562 2.8125 -5.53125 2.625 -5.53125 C 2.4375 -5.53125 2.28125 -5.484375 2.15625 -5.390625 C 2.03125 -5.296875 1.96875 -5.15625 1.96875 -4.96875 C 1.96875 -4.769531 2.039062 -4.613281 2.1875 -4.5 C 2.34375 -4.382812 2.535156 -4.285156 2.765625 -4.203125 C 3.003906 -4.117188 3.253906 -4.03125 3.515625 -3.9375 C 3.785156 -3.84375 4.035156 -3.710938 4.265625 -3.546875 C 4.503906 -3.390625 4.695312 -3.179688 4.84375 -2.921875 C 5 -2.671875 5.078125 -2.332031 5.078125 -1.90625 C 5.078125 -1.488281 4.96875 -1.128906 4.75 -0.828125 C 4.539062 -0.523438 4.257812 -0.296875 3.90625 -0.140625 C 3.550781 0.015625 3.164062 0.09375 2.75 0.09375 Z M 2.75 0.09375 "/></g></g></g><g fill="#ffffff" fill-opacity="1"><g transform="translate(219.500909, 224.192095)"><g/></g></g><g fill="#ffffff" fill-opacity="1"><g transform="translate(225.198029, 224.192095)"><g><path d="M 7.84375 -6.75 L 9.40625 -6.75 L 7.5625 0 L 5.84375 0 L 4.625 -4.75 L 3.390625 0 L 1.6875 0 L -0.15625 -6.75 L 1.40625 -6.75 L 2.625 -2.046875 L 3.90625 -6.75 L 5.34375 -6.75 L 6.640625 -2.0625 Z M 7.84375 -6.75 "/></g></g></g><g fill="#ffffff" fill-opacity="1"><g transform="translate(237.442703, 224.192095)"><g><path d="M 3.875 0.09375 C 3.394531 0.09375 2.945312 0.00390625 2.53125 -0.171875 C 2.113281 -0.359375 1.742188 -0.609375 1.421875 -0.921875 C 1.109375 -1.242188 0.863281 -1.613281 0.6875 -2.03125 C 0.507812 -2.445312 0.421875 -2.894531 0.421875 -3.375 C 0.421875 -3.851562 0.507812 -4.300781 0.6875 -4.71875 C 0.863281 -5.132812 1.109375 -5.5 1.421875 -5.8125 C 1.742188 -6.132812 2.113281 -6.382812 2.53125 -6.5625 C 2.945312 -6.75 3.394531 -6.84375 3.875 -6.84375 C 4.351562 -6.84375 4.800781 -6.75 5.21875 -6.5625 C 5.644531 -6.382812 6.015625 -6.132812 6.328125 -5.8125 C 6.648438 -5.5 6.898438 -5.132812 7.078125 -4.71875 C 7.253906 -4.300781 7.34375 -3.851562 7.34375 -3.375 C 7.34375 -2.894531 7.253906 -2.445312 7.078125 -2.03125 C 6.898438 -1.613281 6.648438 -1.242188 6.328125 -0.921875 C 6.015625 -0.609375 5.644531 -0.359375 5.21875 -0.171875 C 4.800781 0.00390625 4.351562 0.09375 3.875 0.09375 Z M 3.875 -1.359375 C 4.257812 -1.359375 4.601562 -1.445312 4.90625 -1.625 C 5.207031 -1.800781 5.445312 -2.039062 5.625 -2.34375 C 5.800781 -2.644531 5.890625 -2.988281 5.890625 -3.375 C 5.890625 -3.757812 5.800781 -4.101562 5.625 -4.40625 C 5.445312 -4.707031 5.207031 -4.945312 4.90625 -5.125 C 4.601562 -5.300781 4.257812 -5.390625 3.875 -5.390625 C 3.5 -5.390625 3.160156 -5.300781 2.859375 -5.125 C 2.554688 -4.945312 2.316406 -4.707031 2.140625 -4.40625 C 1.960938 -4.101562 1.875 -3.757812 1.875 -3.375 C 1.875 -2.988281 1.960938 -2.644531 2.140625 -2.34375 C 2.316406 -2.039062 2.554688 -1.800781 2.859375 -1.625 C 3.160156 -1.445312 3.5 -1.359375 3.875 -1.359375 Z M 3.875 -1.359375 "/></g></g></g><g fill="#ffffff" fill-opacity="1"><g transform="translate(248.213607, 224.192095)"><g><path d="M 4.1875 -2.78125 L 6.078125 0 L 4.40625 0 L 2.75 -2.609375 L 2.15625 -2.609375 L 2.15625 0 L 0.65625 0 L 0.65625 -6.75 L 3.53125 -6.75 C 3.925781 -6.75 4.269531 -6.65625 4.5625 -6.46875 C 4.863281 -6.289062 5.101562 -6.039062 5.28125 -5.71875 C 5.457031 -5.40625 5.546875 -5.0625 5.546875 -4.6875 C 5.546875 -4.226562 5.414062 -3.820312 5.15625 -3.46875 C 4.90625 -3.125 4.582031 -2.894531 4.1875 -2.78125 Z M 3.3125 -3.84375 C 3.550781 -3.84375 3.742188 -3.914062 3.890625 -4.0625 C 4.046875 -4.207031 4.125 -4.398438 4.125 -4.640625 C 4.125 -4.867188 4.046875 -5.054688 3.890625 -5.203125 C 3.742188 -5.359375 3.550781 -5.4375 3.3125 -5.4375 L 2.15625 -5.4375 L 2.15625 -3.84375 Z M 3.3125 -3.84375 "/></g></g></g><g fill="#ffffff" fill-opacity="1"><g transform="translate(257.229502, 224.192095)"><g><path d="M 4.875 0 L 2.359375 -3.078125 L 2.15625 -3.078125 L 2.15625 0 L 0.65625 0 L 0.65625 -6.75 L 2.15625 -6.75 L 2.15625 -4.359375 L 2.40625 -4.359375 L 4.609375 -6.75 L 6.53125 -6.75 L 3.609375 -3.75 L 6.859375 0 Z M 4.875 0 "/></g></g></g><g fill="#ffffff" fill-opacity="1"><g transform="translate(266.852895, 224.192095)"><g><path d="M 2.75 0.09375 C 2.15625 0.09375 1.628906 -0.0507812 1.171875 -0.34375 C 0.722656 -0.632812 0.394531 -0.992188 0.1875 -1.421875 L 1.40625 -2.1875 C 1.53125 -1.914062 1.707031 -1.703125 1.9375 -1.546875 C 2.175781 -1.390625 2.445312 -1.3125 2.75 -1.3125 C 3.019531 -1.3125 3.226562 -1.363281 3.375 -1.46875 C 3.519531 -1.582031 3.59375 -1.734375 3.59375 -1.921875 C 3.59375 -2.117188 3.515625 -2.273438 3.359375 -2.390625 C 3.210938 -2.515625 3.019531 -2.617188 2.78125 -2.703125 C 2.550781 -2.785156 2.300781 -2.875 2.03125 -2.96875 C 1.757812 -3.0625 1.503906 -3.179688 1.265625 -3.328125 C 1.035156 -3.484375 0.84375 -3.679688 0.6875 -3.921875 C 0.539062 -4.160156 0.46875 -4.46875 0.46875 -4.84375 C 0.46875 -5.300781 0.570312 -5.675781 0.78125 -5.96875 C 1 -6.257812 1.273438 -6.476562 1.609375 -6.625 C 1.941406 -6.769531 2.28125 -6.84375 2.625 -6.84375 C 3.050781 -6.84375 3.441406 -6.753906 3.796875 -6.578125 C 4.160156 -6.398438 4.46875 -6.171875 4.71875 -5.890625 L 3.71875 -4.9375 C 3.550781 -5.125 3.375 -5.269531 3.1875 -5.375 C 3 -5.476562 2.8125 -5.53125 2.625 -5.53125 C 2.4375 -5.53125 2.28125 -5.484375 2.15625 -5.390625 C 2.03125 -5.296875 1.96875 -5.15625 1.96875 -4.96875 C 1.96875 -4.769531 2.039062 -4.613281 2.1875 -4.5 C 2.34375 -4.382812 2.535156 -4.285156 2.765625 -4.203125 C 3.003906 -4.117188 3.253906 -4.03125 3.515625 -3.9375 C 3.785156 -3.84375 4.035156 -3.710938 4.265625 -3.546875 C 4.503906 -3.390625 4.695312 -3.179688 4.84375 -2.921875 C 5 -2.671875 5.078125 -2.332031 5.078125 -1.90625 C 5.078125 -1.488281 4.96875 -1.128906 4.75 -0.828125 C 4.539062 -0.523438 4.257812 -0.296875 3.90625 -0.140625 C 3.550781 0.015625 3.164062 0.09375 2.75 0.09375 Z M 2.75 0.09375 "/></g></g></g><g fill="#ffffff" fill-opacity="1"><g transform="translate(275.182523, 224.192095)"><g/></g></g><g fill="#ffffff" fill-opacity="1"><g transform="translate(280.879643, 224.192095)"><g><path d="M 2.15625 -1.3125 L 4.390625 -1.3125 L 4.390625 0 L 0.65625 0 L 0.65625 -6.75 L 2.15625 -6.75 Z M 2.15625 -1.3125 "/></g></g></g><g fill="#ffffff" fill-opacity="1"><g transform="translate(288.286763, 224.192095)"><g><path d="M 2.15625 -1.3125 L 4.390625 -1.3125 L 4.390625 0 L 0.65625 0 L 0.65625 -6.75 L 2.15625 -6.75 Z M 2.15625 -1.3125 "/></g></g></g><g fill="#ffffff" fill-opacity="1"><g transform="translate(295.693882, 224.192095)"><g><path d="M 3.875 0.09375 C 3.394531 0.09375 2.945312 0.00390625 2.53125 -0.171875 C 2.113281 -0.359375 1.742188 -0.609375 1.421875 -0.921875 C 1.109375 -1.242188 0.863281 -1.613281 0.6875 -2.03125 C 0.507812 -2.445312 0.421875 -2.894531 0.421875 -3.375 C 0.421875 -3.851562 0.507812 -4.300781 0.6875 -4.71875 C 0.863281 -5.132812 1.109375 -5.5 1.421875 -5.8125 C 1.742188 -6.132812 2.113281 -6.382812 2.53125 -6.5625 C 2.945312 -6.75 3.394531 -6.84375 3.875 -6.84375 C 4.539062 -6.84375 5.148438 -6.671875 5.703125 -6.328125 C 6.253906 -5.984375 6.671875 -5.535156 6.953125 -4.984375 L 5.671875 -4.3125 C 5.503906 -4.632812 5.265625 -4.894531 4.953125 -5.09375 C 4.640625 -5.289062 4.28125 -5.390625 3.875 -5.390625 C 3.5 -5.390625 3.160156 -5.300781 2.859375 -5.125 C 2.554688 -4.945312 2.316406 -4.707031 2.140625 -4.40625 C 1.960938 -4.101562 1.875 -3.757812 1.875 -3.375 C 1.875 -2.988281 1.960938 -2.644531 2.140625 -2.34375 C 2.316406 -2.039062 2.554688 -1.800781 2.859375 -1.625 C 3.160156 -1.445312 3.5 -1.359375 3.875 -1.359375 C 4.28125 -1.359375 4.640625 -1.457031 4.953125 -1.65625 C 5.265625 -1.851562 5.503906 -2.113281 5.671875 -2.4375 L 6.953125 -1.765625 C 6.671875 -1.210938 6.253906 -0.765625 5.703125 -0.421875 C 5.148438 -0.078125 4.539062 0.09375 3.875 0.09375 Z M 3.875 0.09375 "/></g></g></g><path stroke-linecap="butt" transform="matrix(0.75, 0, 0, 0.75, 99.649568, 206.375523)" fill="none" stroke-linejoin="miter" d="M -0.00150674 0.499302 L 236.811009 0.499302 " stroke="#51ade5" stroke-width="1" stroke-opacity="1" stroke-miterlimit="4"/></svg>