<svg xmlns="http://www.w3.org/2000/svg" xmlns:xlink="http://www.w3.org/1999/xlink" width="500" zoomAndPan="magnify" viewBox="0 0 375 374.999991" height="500" preserveAspectRatio="xMidYMid meet" version="1.0"><defs><g/></defs><path fill="#3871c1" d="M 277.875 158.238281 L 277.875 163.941406 L 183.554688 163.941406 C 182.871094 163.941406 182.210938 163.695312 181.695312 163.25 L 143.84375 130.640625 L 105.785156 163.941406 L 97.125 163.941406 L 141.949219 124.714844 C 143.011719 123.78125 144.609375 123.777344 145.6875 124.703125 L 163.789062 140.296875 L 163.789062 131.203125 C 163.789062 130.382812 164.457031 129.714844 165.277344 129.714844 L 173.710938 129.714844 C 174.53125 129.714844 175.199219 130.382812 175.199219 131.203125 L 175.199219 150.125 L 184.613281 158.238281 Z M 277.875 158.238281 " fill-opacity="1" fill-rule="nonzero"/><path fill="#51ade5" d="M 140.972656 146.828125 L 135.269531 146.828125 L 135.269531 152.53125 L 140.972656 152.53125 Z M 152.382812 152.53125 L 146.675781 152.53125 L 146.675781 146.828125 L 152.382812 146.828125 Z M 140.972656 163.941406 L 135.269531 163.941406 L 135.269531 158.238281 L 140.972656 158.238281 Z M 152.382812 163.941406 L 146.675781 163.941406 L 146.675781 158.238281 L 152.382812 158.238281 Z M 152.382812 163.941406 " fill-opacity="1" fill-rule="nonzero"/><g fill="#000000" fill-opacity="1"><g transform="translate(85.762004, 194.059132)"><g><path d="M 14.53125 -5.09375 C 14.53125 -3.332031 13.953125 -1.976562 12.796875 -1.03125 C 11.648438 -0.09375 9.945312 0.375 7.6875 0.375 C 6.132812 0.375 4.785156 0.113281 3.640625 -0.40625 C 2.492188 -0.925781 1.5625 -1.757812 0.84375 -2.90625 L 3.59375 -5.015625 C 4 -4.441406 4.382812 -4.007812 4.75 -3.71875 C 5.113281 -3.425781 5.546875 -3.203125 6.046875 -3.046875 C 6.546875 -2.890625 7.117188 -2.8125 7.765625 -2.8125 C 8.742188 -2.8125 9.503906 -2.976562 10.046875 -3.3125 C 10.597656 -3.644531 10.875 -4.15625 10.875 -4.84375 C 10.875 -5.226562 10.773438 -5.550781 10.578125 -5.8125 C 10.390625 -6.070312 10.101562 -6.296875 9.71875 -6.484375 C 9.34375 -6.679688 8.6875 -6.898438 7.75 -7.140625 C 6.832031 -7.390625 5.96875 -7.640625 5.15625 -7.890625 C 4.351562 -8.140625 3.65625 -8.460938 3.0625 -8.859375 C 2.476562 -9.253906 2.015625 -9.753906 1.671875 -10.359375 C 1.335938 -10.960938 1.171875 -11.71875 1.171875 -12.625 C 1.171875 -14.300781 1.734375 -15.601562 2.859375 -16.53125 C 3.984375 -17.46875 5.59375 -17.9375 7.6875 -17.9375 C 10.726562 -17.9375 12.878906 -16.894531 14.140625 -14.8125 L 11.40625 -12.6875 C 10.925781 -13.425781 10.382812 -13.957031 9.78125 -14.28125 C 9.1875 -14.601562 8.472656 -14.765625 7.640625 -14.765625 C 6.816406 -14.765625 6.144531 -14.613281 5.625 -14.3125 C 5.101562 -14.007812 4.84375 -13.539062 4.84375 -12.90625 C 4.84375 -12.332031 5.113281 -11.894531 5.65625 -11.59375 C 6.195312 -11.289062 7.140625 -10.988281 8.484375 -10.6875 C 9.222656 -10.488281 9.957031 -10.273438 10.6875 -10.046875 C 11.414062 -9.828125 12.066406 -9.519531 12.640625 -9.125 C 13.210938 -8.726562 13.671875 -8.207031 14.015625 -7.5625 C 14.359375 -6.925781 14.53125 -6.101562 14.53125 -5.09375 Z M 14.53125 -5.09375 "/></g></g></g><g fill="#000000" fill-opacity="1"><g transform="translate(102.633871, 194.059132)"><g><path d="M 0.34375 0 L 6.15625 -17.578125 L 10.8125 -17.578125 L 16.640625 0 L 12.96875 0 L 11.8125 -3.5625 L 5.046875 -3.5625 L 3.890625 0 Z M 6.0625 -6.703125 L 10.796875 -6.703125 L 8.4375 -13.96875 Z M 6.0625 -6.703125 "/></g></g></g><g fill="#000000" fill-opacity="1"><g transform="translate(120.876419, 194.059132)"><g><path d="M 1.90625 0 L 1.90625 -17.578125 L 13.3125 -17.578125 L 13.3125 -14.40625 L 5.484375 -14.40625 L 5.484375 -10.671875 L 12.09375 -10.671875 L 12.09375 -7.484375 L 5.484375 -7.484375 L 5.484375 -3.28125 L 13.3125 -3.28125 L 13.3125 0 Z M 1.90625 0 "/></g></g></g><g fill="#000000" fill-opacity="1"><g transform="translate(136.732968, 194.059132)"><g><path d="M 1.90625 0 L 1.90625 -17.578125 L 13.3125 -17.578125 L 13.3125 -14.40625 L 5.484375 -14.40625 L 5.484375 -10.671875 L 12.09375 -10.671875 L 12.09375 -7.484375 L 5.484375 -7.484375 L 5.484375 -3.28125 L 13.3125 -3.28125 L 13.3125 0 Z M 1.90625 0 "/></g></g></g><g fill="#000000" fill-opacity="1"><g transform="translate(152.589511, 194.059132)"><g><path d="M 15.578125 -8.78125 C 15.578125 -6.664062 15.285156 -4.960938 14.703125 -3.671875 C 14.117188 -2.390625 13.238281 -1.457031 12.0625 -0.875 C 10.882812 -0.289062 9.226562 0 7.09375 0 L 1.734375 0 L 1.734375 -17.578125 L 7.046875 -17.578125 C 9.117188 -17.578125 10.765625 -17.273438 11.984375 -16.671875 C 13.210938 -16.066406 14.117188 -15.128906 14.703125 -13.859375 C 15.285156 -12.585938 15.578125 -10.894531 15.578125 -8.78125 Z M 11.890625 -8.8125 C 11.890625 -10.34375 11.738281 -11.476562 11.4375 -12.21875 C 11.132812 -12.957031 10.625 -13.488281 9.90625 -13.8125 C 9.1875 -14.132812 8.117188 -14.296875 6.703125 -14.296875 L 5.328125 -14.296875 L 5.328125 -3.28125 L 6.703125 -3.28125 C 8.117188 -3.28125 9.179688 -3.441406 9.890625 -3.765625 C 10.609375 -4.085938 11.117188 -4.628906 11.421875 -5.390625 C 11.734375 -6.148438 11.890625 -7.289062 11.890625 -8.8125 Z M 11.890625 -8.8125 "/></g></g></g><g fill="#000000" fill-opacity="1"><g transform="translate(170.52746, 194.059132)"><g/></g></g><g fill="#000000" fill-opacity="1"><g transform="translate(178.04569, 194.059132)"><g><path d="M 11.40625 0 L 6.546875 -7.34375 L 5.484375 -6.109375 L 5.484375 0 L 1.90625 0 L 1.90625 -17.578125 L 5.484375 -17.578125 L 5.484375 -10.71875 L 11.234375 -17.578125 L 15.40625 -17.578125 L 8.859375 -10 L 15.875 0 Z M 11.40625 0 "/></g></g></g><g fill="#000000" fill-opacity="1"><g transform="translate(195.56482, 194.059132)"><g><path d="M 12.40625 0 L 12.40625 -7.46875 L 5.484375 -7.46875 L 5.484375 0 L 1.90625 0 L 1.90625 -17.578125 L 5.484375 -17.578125 L 5.484375 -10.734375 L 12.40625 -10.734375 L 12.40625 -17.578125 L 16 -17.578125 L 16 0 Z M 12.40625 0 "/></g></g></g><g fill="#000000" fill-opacity="1"><g transform="translate(214.721153, 194.059132)"><g><path d="M 0.34375 0 L 6.15625 -17.578125 L 10.8125 -17.578125 L 16.640625 0 L 12.96875 0 L 11.8125 -3.5625 L 5.046875 -3.5625 L 3.890625 0 Z M 6.0625 -6.703125 L 10.796875 -6.703125 L 8.4375 -13.96875 Z M 6.0625 -6.703125 "/></g></g></g><g fill="#000000" fill-opacity="1"><g transform="translate(232.963698, 194.059132)"><g><path d="M 15.8125 0 L 15.8125 -11.8125 L 11.59375 -4.46875 L 9.515625 -4.46875 L 5.359375 -11.8125 L 5.359375 0 L 1.90625 0 L 1.90625 -17.578125 L 6.03125 -17.578125 L 10.609375 -9.234375 L 15.234375 -17.578125 L 19.265625 -17.578125 L 19.265625 0 Z M 15.8125 0 "/></g></g></g><g fill="#000000" fill-opacity="1"><g transform="translate(255.394437, 194.059132)"><g><path d="M 0.34375 0 L 6.15625 -17.578125 L 10.8125 -17.578125 L 16.640625 0 L 12.96875 0 L 11.8125 -3.5625 L 5.046875 -3.5625 L 3.890625 0 Z M 6.0625 -6.703125 L 10.796875 -6.703125 L 8.4375 -13.96875 Z M 6.0625 -6.703125 "/></g></g></g><g fill="#000000" fill-opacity="1"><g transform="translate(273.636982, 194.059132)"><g><path d="M 14.53125 -5.09375 C 14.53125 -3.332031 13.953125 -1.976562 12.796875 -1.03125 C 11.648438 -0.09375 9.945312 0.375 7.6875 0.375 C 6.132812 0.375 4.785156 0.113281 3.640625 -0.40625 C 2.492188 -0.925781 1.5625 -1.757812 0.84375 -2.90625 L 3.59375 -5.015625 C 4 -4.441406 4.382812 -4.007812 4.75 -3.71875 C 5.113281 -3.425781 5.546875 -3.203125 6.046875 -3.046875 C 6.546875 -2.890625 7.117188 -2.8125 7.765625 -2.8125 C 8.742188 -2.8125 9.503906 -2.976562 10.046875 -3.3125 C 10.597656 -3.644531 10.875 -4.15625 10.875 -4.84375 C 10.875 -5.226562 10.773438 -5.550781 10.578125 -5.8125 C 10.390625 -6.070312 10.101562 -6.296875 9.71875 -6.484375 C 9.34375 -6.679688 8.6875 -6.898438 7.75 -7.140625 C 6.832031 -7.390625 5.96875 -7.640625 5.15625 -7.890625 C 4.351562 -8.140625 3.65625 -8.460938 3.0625 -8.859375 C 2.476562 -9.253906 2.015625 -9.753906 1.671875 -10.359375 C 1.335938 -10.960938 1.171875 -11.71875 1.171875 -12.625 C 1.171875 -14.300781 1.734375 -15.601562 2.859375 -16.53125 C 3.984375 -17.46875 5.59375 -17.9375 7.6875 -17.9375 C 10.726562 -17.9375 12.878906 -16.894531 14.140625 -14.8125 L 11.40625 -12.6875 C 10.925781 -13.425781 10.382812 -13.957031 9.78125 -14.28125 C 9.1875 -14.601562 8.472656 -14.765625 7.640625 -14.765625 C 6.816406 -14.765625 6.144531 -14.613281 5.625 -14.3125 C 5.101562 -14.007812 4.84375 -13.539062 4.84375 -12.90625 C 4.84375 -12.332031 5.113281 -11.894531 5.65625 -11.59375 C 6.195312 -11.289062 7.140625 -10.988281 8.484375 -10.6875 C 9.222656 -10.488281 9.957031 -10.273438 10.6875 -10.046875 C 11.414062 -9.828125 12.066406 -9.519531 12.640625 -9.125 C 13.210938 -8.726562 13.671875 -8.207031 14.015625 -7.5625 C 14.359375 -6.925781 14.53125 -6.101562 14.53125 -5.09375 Z M 14.53125 -5.09375 "/></g></g></g><g fill="#000000" fill-opacity="1"><g transform="translate(103.960873, 223.375756)"><g><path d="M 4.34375 0 L 3.859375 -1.40625 L 1.1875 -1.40625 L 0.703125 0 L 0 0 L 2.171875 -6 L 2.875 -6 L 5.046875 0 Z M 1.40625 -2.015625 L 3.65625 -2.015625 L 2.53125 -5.234375 Z M 1.40625 -2.015625 "/></g></g></g><g fill="#000000" fill-opacity="1"><g transform="translate(111.67525, 223.375756)"><g><path d="M 1.375 -0.640625 L 3.59375 -0.640625 L 3.59375 0 L 0.734375 0 L 0.734375 -6 L 1.375 -6 Z M 1.375 -0.640625 "/></g></g></g><g fill="#000000" fill-opacity="1"><g transform="translate(118.029551, 223.375756)"><g><path d="M 2.953125 0.078125 C 2.515625 0.078125 2.125 -0.0078125 1.78125 -0.1875 C 1.445312 -0.363281 1.179688 -0.601562 0.984375 -0.90625 C 0.796875 -1.21875 0.703125 -1.570312 0.703125 -1.96875 L 0.703125 -6 L 1.34375 -6 L 1.34375 -2.0625 C 1.34375 -1.78125 1.410156 -1.523438 1.546875 -1.296875 C 1.691406 -1.066406 1.882812 -0.882812 2.125 -0.75 C 2.363281 -0.625 2.640625 -0.5625 2.953125 -0.5625 C 3.265625 -0.5625 3.539062 -0.625 3.78125 -0.75 C 4.03125 -0.882812 4.222656 -1.066406 4.359375 -1.296875 C 4.492188 -1.523438 4.5625 -1.78125 4.5625 -2.0625 L 4.5625 -6 L 5.203125 -6 L 5.203125 -1.96875 C 5.203125 -1.570312 5.101562 -1.21875 4.90625 -0.90625 C 4.71875 -0.601562 4.453125 -0.363281 4.109375 -0.1875 C 3.773438 -0.0078125 3.390625 0.078125 2.953125 0.078125 Z M 2.953125 0.078125 "/></g></g></g><g fill="#000000" fill-opacity="1"><g transform="translate(126.60397, 223.375756)"><g><path d="M 6.015625 -6 L 6.6875 -6 L 6.6875 0 L 6.0625 0 L 6.0625 -4.71875 L 3.96875 0 L 3.4375 0 L 1.375 -4.734375 L 1.375 0 L 0.734375 0 L 0.734375 -6 L 1.40625 -6 L 3.703125 -0.765625 Z M 6.015625 -6 "/></g></g></g><g fill="#000000" fill-opacity="1"><g transform="translate(136.688468, 223.375756)"><g><path d="M 0.78125 0 L 0.78125 -6 L 1.421875 -6 L 1.421875 0 Z M 0.78125 0 "/></g></g></g><g fill="#000000" fill-opacity="1"><g transform="translate(141.542695, 223.375756)"><g><path d="M 5.046875 -6 L 5.671875 -6 L 5.671875 0 L 5.0625 0 L 1.375 -4.9375 L 1.375 0 L 0.734375 0 L 0.734375 -6 L 1.328125 -6 L 5.046875 -1.0625 Z M 5.046875 -6 "/></g></g></g><g fill="#000000" fill-opacity="1"><g transform="translate(150.607138, 223.375756)"><g><path d="M 2.953125 0.078125 C 2.515625 0.078125 2.125 -0.0078125 1.78125 -0.1875 C 1.445312 -0.363281 1.179688 -0.601562 0.984375 -0.90625 C 0.796875 -1.21875 0.703125 -1.570312 0.703125 -1.96875 L 0.703125 -6 L 1.34375 -6 L 1.34375 -2.0625 C 1.34375 -1.78125 1.410156 -1.523438 1.546875 -1.296875 C 1.691406 -1.066406 1.882812 -0.882812 2.125 -0.75 C 2.363281 -0.625 2.640625 -0.5625 2.953125 -0.5625 C 3.265625 -0.5625 3.539062 -0.625 3.78125 -0.75 C 4.03125 -0.882812 4.222656 -1.066406 4.359375 -1.296875 C 4.492188 -1.523438 4.5625 -1.78125 4.5625 -2.0625 L 4.5625 -6 L 5.203125 -6 L 5.203125 -1.96875 C 5.203125 -1.570312 5.101562 -1.21875 4.90625 -0.90625 C 4.71875 -0.601562 4.453125 -0.363281 4.109375 -0.1875 C 3.773438 -0.0078125 3.390625 0.078125 2.953125 0.078125 Z M 2.953125 0.078125 "/></g></g></g><g fill="#000000" fill-opacity="1"><g transform="translate(159.18156, 223.375756)"><g><path d="M 6.015625 -6 L 6.6875 -6 L 6.6875 0 L 6.0625 0 L 6.0625 -4.71875 L 3.96875 0 L 3.4375 0 L 1.375 -4.734375 L 1.375 0 L 0.734375 0 L 0.734375 -6 L 1.40625 -6 L 3.703125 -0.765625 Z M 6.015625 -6 "/></g></g></g><g fill="#000000" fill-opacity="1"><g transform="translate(169.266057, 223.375756)"><g/></g></g><g fill="#000000" fill-opacity="1"><g transform="translate(174.340295, 223.375756)"><g><path d="M 5.046875 -3.34375 L 5.046875 -2.734375 L 4.484375 -2.734375 L 4.484375 -1.703125 C 4.484375 -1.367188 4.40625 -1.070312 4.25 -0.8125 C 4.101562 -0.5625 3.894531 -0.363281 3.625 -0.21875 C 3.351562 -0.0703125 3.039062 0 2.6875 0 C 2.332031 0 2.015625 -0.0664062 1.734375 -0.203125 C 1.453125 -0.347656 1.226562 -0.546875 1.0625 -0.796875 C 0.894531 -1.046875 0.8125 -1.328125 0.8125 -1.640625 C 0.8125 -1.929688 0.878906 -2.203125 1.015625 -2.453125 C 1.160156 -2.710938 1.347656 -2.914062 1.578125 -3.0625 C 1.359375 -3.21875 1.179688 -3.414062 1.046875 -3.65625 C 0.921875 -3.894531 0.859375 -4.160156 0.859375 -4.453125 C 0.859375 -4.753906 0.925781 -5.019531 1.0625 -5.25 C 1.207031 -5.476562 1.394531 -5.660156 1.625 -5.796875 C 1.863281 -5.929688 2.128906 -6 2.421875 -6 L 3.84375 -6 L 3.84375 -5.359375 L 2.53125 -5.359375 C 2.257812 -5.359375 2.015625 -5.273438 1.796875 -5.109375 C 1.585938 -4.953125 1.484375 -4.722656 1.484375 -4.421875 C 1.484375 -4.109375 1.59375 -3.847656 1.8125 -3.640625 C 2.039062 -3.441406 2.316406 -3.34375 2.640625 -3.34375 L 3.859375 -3.34375 L 3.859375 -4.34375 L 4.484375 -4.34375 L 4.484375 -3.34375 Z M 2.671875 -0.546875 C 3.035156 -0.546875 3.320312 -0.65625 3.53125 -0.875 C 3.75 -1.09375 3.859375 -1.367188 3.859375 -1.703125 L 3.859375 -2.734375 L 2.515625 -2.734375 C 2.203125 -2.734375 1.9375 -2.628906 1.71875 -2.421875 C 1.5 -2.210938 1.390625 -1.957031 1.390625 -1.65625 C 1.390625 -1.332031 1.515625 -1.066406 1.765625 -0.859375 C 2.023438 -0.648438 2.328125 -0.546875 2.671875 -0.546875 Z M 2.671875 -0.546875 "/></g></g></g><g fill="#000000" fill-opacity="1"><g transform="translate(182.434684, 223.375756)"><g/></g></g><g fill="#000000" fill-opacity="1"><g transform="translate(187.508922, 223.375756)"><g><path d="M 3.59375 -3.1875 L 6.6875 -3.1875 L 6.6875 -3 C 6.6875 -2.570312 6.601562 -2.171875 6.4375 -1.796875 C 6.28125 -1.429688 6.054688 -1.109375 5.765625 -0.828125 C 5.484375 -0.546875 5.15625 -0.320312 4.78125 -0.15625 C 4.414062 0 4.019531 0.078125 3.59375 0.078125 C 3.164062 0.078125 2.765625 0 2.390625 -0.15625 C 2.023438 -0.320312 1.703125 -0.546875 1.421875 -0.828125 C 1.140625 -1.109375 0.914062 -1.429688 0.75 -1.796875 C 0.59375 -2.171875 0.515625 -2.570312 0.515625 -3 C 0.515625 -3.425781 0.59375 -3.820312 0.75 -4.1875 C 0.914062 -4.5625 1.140625 -4.890625 1.421875 -5.171875 C 1.703125 -5.453125 2.023438 -5.671875 2.390625 -5.828125 C 2.765625 -5.992188 3.164062 -6.078125 3.59375 -6.078125 C 4.164062 -6.078125 4.6875 -5.929688 5.15625 -5.640625 C 5.632812 -5.359375 6.003906 -4.984375 6.265625 -4.515625 L 5.71875 -4.203125 C 5.507812 -4.578125 5.21875 -4.875 4.84375 -5.09375 C 4.46875 -5.320312 4.050781 -5.4375 3.59375 -5.4375 C 3.15625 -5.4375 2.75 -5.328125 2.375 -5.109375 C 2 -4.898438 1.703125 -4.609375 1.484375 -4.234375 C 1.265625 -3.867188 1.15625 -3.457031 1.15625 -3 C 1.15625 -2.539062 1.265625 -2.125 1.484375 -1.75 C 1.703125 -1.382812 2 -1.09375 2.375 -0.875 C 2.75 -0.664062 3.15625 -0.5625 3.59375 -0.5625 C 4 -0.5625 4.375 -0.648438 4.71875 -0.828125 C 5.0625 -1.003906 5.34375 -1.242188 5.5625 -1.546875 C 5.789062 -1.847656 5.9375 -2.191406 6 -2.578125 L 3.59375 -2.578125 Z M 3.59375 -3.1875 "/></g></g></g><g fill="#000000" fill-opacity="1"><g transform="translate(197.363404, 223.375756)"><g><path d="M 1.375 -0.640625 L 3.59375 -0.640625 L 3.59375 0 L 0.734375 0 L 0.734375 -6 L 1.375 -6 Z M 1.375 -0.640625 "/></g></g></g><g fill="#000000" fill-opacity="1"><g transform="translate(203.717706, 223.375756)"><g><path d="M 4.34375 0 L 3.859375 -1.40625 L 1.1875 -1.40625 L 0.703125 0 L 0 0 L 2.171875 -6 L 2.875 -6 L 5.046875 0 Z M 1.40625 -2.015625 L 3.65625 -2.015625 L 2.53125 -5.234375 Z M 1.40625 -2.015625 "/></g></g></g><g fill="#000000" fill-opacity="1"><g transform="translate(211.432085, 223.375756)"><g><path d="M 2.234375 0.078125 C 1.785156 0.078125 1.382812 -0.03125 1.03125 -0.25 C 0.6875 -0.476562 0.441406 -0.773438 0.296875 -1.140625 L 0.875 -1.484375 C 0.976562 -1.203125 1.144531 -0.976562 1.375 -0.8125 C 1.613281 -0.644531 1.90625 -0.5625 2.25 -0.5625 C 2.582031 -0.5625 2.863281 -0.644531 3.09375 -0.8125 C 3.332031 -0.988281 3.453125 -1.238281 3.453125 -1.5625 C 3.453125 -1.8125 3.378906 -2.015625 3.234375 -2.171875 C 3.097656 -2.328125 2.914062 -2.457031 2.6875 -2.5625 C 2.46875 -2.664062 2.234375 -2.765625 1.984375 -2.859375 C 1.742188 -2.960938 1.507812 -3.078125 1.28125 -3.203125 C 1.0625 -3.335938 0.878906 -3.503906 0.734375 -3.703125 C 0.597656 -3.910156 0.53125 -4.175781 0.53125 -4.5 C 0.53125 -4.820312 0.601562 -5.101562 0.75 -5.34375 C 0.90625 -5.582031 1.109375 -5.765625 1.359375 -5.890625 C 1.609375 -6.015625 1.890625 -6.078125 2.203125 -6.078125 C 2.546875 -6.078125 2.851562 -6.003906 3.125 -5.859375 C 3.40625 -5.722656 3.628906 -5.546875 3.796875 -5.328125 L 3.296875 -4.90625 C 3.054688 -5.257812 2.695312 -5.4375 2.21875 -5.4375 C 1.9375 -5.4375 1.691406 -5.363281 1.484375 -5.21875 C 1.273438 -5.070312 1.171875 -4.847656 1.171875 -4.546875 C 1.171875 -4.304688 1.238281 -4.113281 1.375 -3.96875 C 1.519531 -3.820312 1.703125 -3.695312 1.921875 -3.59375 C 2.148438 -3.488281 2.382812 -3.390625 2.625 -3.296875 C 2.875 -3.203125 3.109375 -3.082031 3.328125 -2.9375 C 3.554688 -2.800781 3.738281 -2.625 3.875 -2.40625 C 4.019531 -2.195312 4.09375 -1.921875 4.09375 -1.578125 C 4.09375 -1.234375 4.007812 -0.9375 3.84375 -0.6875 C 3.675781 -0.4375 3.453125 -0.242188 3.171875 -0.109375 C 2.890625 0.015625 2.578125 0.078125 2.234375 0.078125 Z M 2.234375 0.078125 "/></g></g></g><g fill="#000000" fill-opacity="1"><g transform="translate(218.47643, 223.375756)"><g><path d="M 2.234375 0.078125 C 1.785156 0.078125 1.382812 -0.03125 1.03125 -0.25 C 0.6875 -0.476562 0.441406 -0.773438 0.296875 -1.140625 L 0.875 -1.484375 C 0.976562 -1.203125 1.144531 -0.976562 1.375 -0.8125 C 1.613281 -0.644531 1.90625 -0.5625 2.25 -0.5625 C 2.582031 -0.5625 2.863281 -0.644531 3.09375 -0.8125 C 3.332031 -0.988281 3.453125 -1.238281 3.453125 -1.5625 C 3.453125 -1.8125 3.378906 -2.015625 3.234375 -2.171875 C 3.097656 -2.328125 2.914062 -2.457031 2.6875 -2.5625 C 2.46875 -2.664062 2.234375 -2.765625 1.984375 -2.859375 C 1.742188 -2.960938 1.507812 -3.078125 1.28125 -3.203125 C 1.0625 -3.335938 0.878906 -3.503906 0.734375 -3.703125 C 0.597656 -3.910156 0.53125 -4.175781 0.53125 -4.5 C 0.53125 -4.820312 0.601562 -5.101562 0.75 -5.34375 C 0.90625 -5.582031 1.109375 -5.765625 1.359375 -5.890625 C 1.609375 -6.015625 1.890625 -6.078125 2.203125 -6.078125 C 2.546875 -6.078125 2.851562 -6.003906 3.125 -5.859375 C 3.40625 -5.722656 3.628906 -5.546875 3.796875 -5.328125 L 3.296875 -4.90625 C 3.054688 -5.257812 2.695312 -5.4375 2.21875 -5.4375 C 1.9375 -5.4375 1.691406 -5.363281 1.484375 -5.21875 C 1.273438 -5.070312 1.171875 -4.847656 1.171875 -4.546875 C 1.171875 -4.304688 1.238281 -4.113281 1.375 -3.96875 C 1.519531 -3.820312 1.703125 -3.695312 1.921875 -3.59375 C 2.148438 -3.488281 2.382812 -3.390625 2.625 -3.296875 C 2.875 -3.203125 3.109375 -3.082031 3.328125 -2.9375 C 3.554688 -2.800781 3.738281 -2.625 3.875 -2.40625 C 4.019531 -2.195312 4.09375 -1.921875 4.09375 -1.578125 C 4.09375 -1.234375 4.007812 -0.9375 3.84375 -0.6875 C 3.675781 -0.4375 3.453125 -0.242188 3.171875 -0.109375 C 2.890625 0.015625 2.578125 0.078125 2.234375 0.078125 Z M 2.234375 0.078125 "/></g></g></g><g fill="#000000" fill-opacity="1"><g transform="translate(225.520776, 223.375756)"><g/></g></g><g fill="#000000" fill-opacity="1"><g transform="translate(230.595013, 223.375756)"><g><path d="M 7.484375 -6 L 8.15625 -6 L 6.28125 0 L 5.609375 0 L 4.046875 -5.3125 L 2.5 0 L 1.8125 0 L -0.0625 -6 L 0.625 -6 L 2.15625 -1.078125 L 3.59375 -6 L 4.484375 -6 L 5.953125 -1.0625 Z M 7.484375 -6 "/></g></g></g><g fill="#000000" fill-opacity="1"><g transform="translate(241.349544, 223.375756)"><g><path d="M 3.5625 0.078125 C 3.144531 0.078125 2.75 0 2.375 -0.15625 C 2 -0.320312 1.671875 -0.546875 1.390625 -0.828125 C 1.109375 -1.109375 0.882812 -1.429688 0.71875 -1.796875 C 0.5625 -2.171875 0.484375 -2.570312 0.484375 -3 C 0.484375 -3.425781 0.5625 -3.820312 0.71875 -4.1875 C 0.882812 -4.5625 1.109375 -4.890625 1.390625 -5.171875 C 1.671875 -5.453125 2 -5.671875 2.375 -5.828125 C 2.75 -5.992188 3.144531 -6.078125 3.5625 -6.078125 C 3.988281 -6.078125 4.390625 -5.992188 4.765625 -5.828125 C 5.140625 -5.671875 5.46875 -5.453125 5.75 -5.171875 C 6.03125 -4.890625 6.25 -4.5625 6.40625 -4.1875 C 6.570312 -3.820312 6.65625 -3.425781 6.65625 -3 C 6.65625 -2.570312 6.570312 -2.171875 6.40625 -1.796875 C 6.25 -1.429688 6.03125 -1.109375 5.75 -0.828125 C 5.46875 -0.546875 5.140625 -0.320312 4.765625 -0.15625 C 4.390625 0 3.988281 0.078125 3.5625 0.078125 Z M 3.5625 -0.5625 C 4.019531 -0.5625 4.429688 -0.664062 4.796875 -0.875 C 5.171875 -1.09375 5.46875 -1.382812 5.6875 -1.75 C 5.90625 -2.125 6.015625 -2.539062 6.015625 -3 C 6.015625 -3.457031 5.90625 -3.867188 5.6875 -4.234375 C 5.46875 -4.609375 5.171875 -4.898438 4.796875 -5.109375 C 4.429688 -5.328125 4.019531 -5.4375 3.5625 -5.4375 C 3.125 -5.4375 2.71875 -5.328125 2.34375 -5.109375 C 1.976562 -4.898438 1.679688 -4.609375 1.453125 -4.234375 C 1.234375 -3.867188 1.125 -3.457031 1.125 -3 C 1.125 -2.539062 1.234375 -2.125 1.453125 -1.75 C 1.679688 -1.382812 1.976562 -1.09375 2.34375 -0.875 C 2.71875 -0.664062 3.125 -0.5625 3.5625 -0.5625 Z M 3.5625 -0.5625 "/></g></g></g><g fill="#000000" fill-opacity="1"><g transform="translate(251.16403, 223.375756)"><g><path d="M 3.15625 -2.734375 L 4.9375 0 L 4.203125 0 L 2.5 -2.703125 L 1.375 -2.703125 L 1.375 0 L 0.734375 0 L 0.734375 -6 L 2.875 -6 C 3.1875 -6 3.46875 -5.921875 3.71875 -5.765625 C 3.96875 -5.617188 4.164062 -5.421875 4.3125 -5.171875 C 4.46875 -4.921875 4.546875 -4.632812 4.546875 -4.3125 C 4.546875 -4.050781 4.484375 -3.804688 4.359375 -3.578125 C 4.242188 -3.347656 4.082031 -3.160156 3.875 -3.015625 C 3.664062 -2.867188 3.425781 -2.773438 3.15625 -2.734375 Z M 1.375 -3.3125 L 2.84375 -3.3125 C 3.144531 -3.3125 3.394531 -3.40625 3.59375 -3.59375 C 3.800781 -3.78125 3.90625 -4.03125 3.90625 -4.34375 C 3.90625 -4.644531 3.800781 -4.890625 3.59375 -5.078125 C 3.394531 -5.265625 3.144531 -5.359375 2.84375 -5.359375 L 1.375 -5.359375 Z M 1.375 -3.3125 "/></g></g></g><g fill="#000000" fill-opacity="1"><g transform="translate(258.848408, 223.375756)"><g><path d="M 4.3125 0 L 1.796875 -2.9375 L 1.375 -2.9375 L 1.375 0 L 0.734375 0 L 0.734375 -6 L 1.375 -6 L 1.375 -3.546875 L 1.796875 -3.546875 L 4.203125 -6 L 5.09375 -6 L 2.34375 -3.234375 L 5.203125 0 Z M 4.3125 0 "/></g></g></g><g fill="#000000" fill-opacity="1"><g transform="translate(266.642787, 223.375756)"><g><path d="M 2.234375 0.078125 C 1.785156 0.078125 1.382812 -0.03125 1.03125 -0.25 C 0.6875 -0.476562 0.441406 -0.773438 0.296875 -1.140625 L 0.875 -1.484375 C 0.976562 -1.203125 1.144531 -0.976562 1.375 -0.8125 C 1.613281 -0.644531 1.90625 -0.5625 2.25 -0.5625 C 2.582031 -0.5625 2.863281 -0.644531 3.09375 -0.8125 C 3.332031 -0.988281 3.453125 -1.238281 3.453125 -1.5625 C 3.453125 -1.8125 3.378906 -2.015625 3.234375 -2.171875 C 3.097656 -2.328125 2.914062 -2.457031 2.6875 -2.5625 C 2.46875 -2.664062 2.234375 -2.765625 1.984375 -2.859375 C 1.742188 -2.960938 1.507812 -3.078125 1.28125 -3.203125 C 1.0625 -3.335938 0.878906 -3.503906 0.734375 -3.703125 C 0.597656 -3.910156 0.53125 -4.175781 0.53125 -4.5 C 0.53125 -4.820312 0.601562 -5.101562 0.75 -5.34375 C 0.90625 -5.582031 1.109375 -5.765625 1.359375 -5.890625 C 1.609375 -6.015625 1.890625 -6.078125 2.203125 -6.078125 C 2.546875 -6.078125 2.851562 -6.003906 3.125 -5.859375 C 3.40625 -5.722656 3.628906 -5.546875 3.796875 -5.328125 L 3.296875 -4.90625 C 3.054688 -5.257812 2.695312 -5.4375 2.21875 -5.4375 C 1.9375 -5.4375 1.691406 -5.363281 1.484375 -5.21875 C 1.273438 -5.070312 1.171875 -4.847656 1.171875 -4.546875 C 1.171875 -4.304688 1.238281 -4.113281 1.375 -3.96875 C 1.519531 -3.820312 1.703125 -3.695312 1.921875 -3.59375 C 2.148438 -3.488281 2.382812 -3.390625 2.625 -3.296875 C 2.875 -3.203125 3.109375 -3.082031 3.328125 -2.9375 C 3.554688 -2.800781 3.738281 -2.625 3.875 -2.40625 C 4.019531 -2.195312 4.09375 -1.921875 4.09375 -1.578125 C 4.09375 -1.234375 4.007812 -0.9375 3.84375 -0.6875 C 3.675781 -0.4375 3.453125 -0.242188 3.171875 -0.109375 C 2.890625 0.015625 2.578125 0.078125 2.234375 0.078125 Z M 2.234375 0.078125 "/></g></g></g><path stroke-linecap="butt" transform="matrix(0.75, 0, 0, 0.75, 99.649568, 206.375523)" fill="none" stroke-linejoin="miter" d="M -0.00150674 0.499302 L 236.811009 0.499302 " stroke="#51ade5" stroke-width="1" stroke-opacity="1" stroke-miterlimit="4"/></svg>